<svg id="visual" viewBox="0 0 900 600" width="900" height="600" xmlns="http://www.w3.org/2000/svg" xmlns:xlink="http://www.w3.org/1999/xlink" version="1.1"><rect x="0" y="0" width="900" height="600" fill="#ffffff"></rect><defs><linearGradient id="grad1_0" x1="33.3%" y1="0%" x2="100%" y2="100%"><stop offset="20%" stop-color="#ffffff" stop-opacity="1"></stop><stop offset="80%" stop-color="#ffffff" stop-opacity="1"></stop></linearGradient></defs><defs><linearGradient id="grad2_0" x1="0%" y1="0%" x2="66.7%" y2="100%"><stop offset="20%" stop-color="#ffffff" stop-opacity="1"></stop><stop offset="80%" stop-color="#ffffff" stop-opacity="1"></stop></linearGradient></defs><g transform="translate(900, 0)"><path d="M0 432.7C-46.8 430.3 -93.6 427.9 -133.7 411.5C-173.8 395.1 -207.1 364.8 -245.1 337.4C-283.1 309.9 -325.8 285.4 -340.6 247.5C-355.4 209.5 -342.2 158.1 -352.8 114.6C-363.5 71.2 -398.1 35.6 -432.7 0L0 0Z" fill="#FBAE3C"></path></g><g transform="translate(0, 600)"><path d="M0 -432.7C32.3 -389.2 64.5 -345.7 110 -338.6C155.5 -331.4 214.3 -360.6 254.3 -350C294.4 -339.4 315.7 -289.1 340.6 -247.5C365.5 -205.8 394 -173 409.9 -133.2C425.8 -93.4 429.3 -46.7 432.7 0L0 0Z" fill="#FBAE3C"></path></g></svg>