<svg id="visual" viewBox="0 0 900 600" width="900" height="600" xmlns="http://www.w3.org/2000/svg" xmlns:xlink="http://www.w3.org/1999/xlink" version="1.1"><rect x="0" y="0" width="900" height="600" fill="#ffffff"></rect><defs><linearGradient id="grad1_0" x1="33.3%" y1="0%" x2="100%" y2="100%"><stop offset="20%" stop-color="#ffffff" stop-opacity="1"></stop><stop offset="80%" stop-color="#ffffff" stop-opacity="1"></stop></linearGradient></defs><defs><linearGradient id="grad2_0" x1="0%" y1="0%" x2="66.7%" y2="100%"><stop offset="20%" stop-color="#ffffff" stop-opacity="1"></stop><stop offset="80%" stop-color="#ffffff" stop-opacity="1"></stop></linearGradient></defs><g transform="translate(900, 0)"><path d="M0 540.8C-67 519.9 -133.9 498.9 -195.2 471.2C-256.4 443.5 -312 409.1 -365.6 365.6C-419.2 322.1 -470.8 269.4 -499.7 207C-528.5 144.5 -534.7 72.3 -540.8 0L0 0Z" fill="#FBAE3C"></path></g><g transform="translate(0, 600)"><path d="M0 -540.8C73.4 -535.7 146.8 -530.6 207 -499.7C267.1 -468.8 314.1 -412.1 359.2 -359.2C404.3 -306.3 447.7 -257.1 477.6 -197.8C507.6 -138.6 524.2 -69.3 540.8 0L0 0Z" fill="#FBAE3C"></path></g></svg>